<svg width="25" height="25" viewBox="0 0 25 25" fill="none" xmlns="http://www.w3.org/2000/svg">
<path d="M12.5 25C19.4036 25 25 19.4036 25 12.5C25 5.59644 19.4036 0 12.5 0C5.59644 0 0 5.59644 0 12.5C0 19.4036 5.59644 25 12.5 25Z" fill="#20BFB5"/>
<g clip-path="url(#clip0_943_64)">
<path d="M18.5658 11.082L18.2438 10.2771L17.6729 8.84967C17.1828 7.62449 16.0137 6.83301 14.694 6.83301H11.056C9.73656 6.83301 8.56724 7.62449 8.07711 8.84967L7.5062 10.2771L7.18422 11.082C6.49328 11.3447 6 12.0082 6 12.7913V14.1663C6 14.6281 6.17646 15.0449 6.45833 15.3675V16.9163C6.45833 17.4225 6.86883 17.833 7.375 17.833H8.29167C8.79784 17.833 9.20833 17.4225 9.20833 16.9163V15.9997H16.5417V16.9163C16.5417 17.4225 16.9522 17.833 17.4583 17.833H18.375C18.8812 17.833 19.2917 17.4225 19.2917 16.9163V15.3675C19.5735 15.0452 19.75 14.6284 19.75 14.1663V12.7913C19.75 12.0082 19.2567 11.3447 18.5658 11.082V11.082ZM9.77924 9.53059C9.98807 9.00866 10.4937 8.66634 11.056 8.66634H14.694C15.2563 8.66634 15.7619 9.00866 15.9708 9.53059L16.5417 10.958H9.20833L9.77924 9.53059ZM8.29167 14.1606C7.74167 14.1606 7.375 13.7951 7.375 13.2468C7.375 12.6985 7.74167 12.333 8.29167 12.333C8.84167 12.333 9.66667 13.1554 9.66667 13.7037C9.66667 14.252 8.84167 14.1606 8.29167 14.1606ZM17.4583 14.1606C16.9083 14.1606 16.0833 14.252 16.0833 13.7037C16.0833 13.1554 16.9083 12.333 17.4583 12.333C18.0083 12.333 18.375 12.6985 18.375 13.2468C18.375 13.7951 18.0083 14.1606 17.4583 14.1606V14.1606Z" fill="white"/>
</g>
<defs>
<clipPath id="clip0_943_64">
<rect width="13.75" height="14.6667" fill="white" transform="translate(6 5)"/>
</clipPath>
</defs>
</svg>
