<svg width="55" height="55" viewBox="0 0 55 55" fill="none" xmlns="http://www.w3.org/2000/svg">
<path opacity="0.498" d="M27.5 55C42.6878 55 55 42.6878 55 27.5C55 12.3122 42.6878 0 27.5 0C12.3122 0 0 12.3122 0 27.5C0 42.6878 12.3122 55 27.5 55Z" fill="#20242B"/>
<path d="M27.69 49.38C39.6691 49.38 49.38 39.6691 49.38 27.69C49.38 15.7109 39.6691 6 27.69 6C15.7109 6 6 15.7109 6 27.69C6 39.6691 15.7109 49.38 27.69 49.38Z" fill="#20242B"/>
<path d="M21.1111 34L26.0311 21.12H28.9911L33.8911 34H31.0911L29.8711 30.9H25.1311L23.9311 34H21.1111ZM25.5311 28.82H29.4711L27.4911 23.64L25.5311 28.82Z" fill="white"/>
</svg>
