<svg width="55" height="55" viewBox="0 0 55 55" fill="none" xmlns="http://www.w3.org/2000/svg">
<path opacity="0.498" d="M27.5 55C42.6878 55 55 42.6878 55 27.5C55 12.3122 42.6878 0 27.5 0C12.3122 0 0 12.3122 0 27.5C0 42.6878 12.3122 55 27.5 55Z" fill="#20242B"/>
<path d="M27.69 49.38C39.6691 49.38 49.38 39.6691 49.38 27.69C49.38 15.7109 39.6691 6 27.69 6C15.7109 6 6 15.7109 6 27.69C6 39.6691 15.7109 49.38 27.69 49.38Z" fill="#20242B"/>
<path d="M22.2826 35V22.12H28.8026C30.0959 22.12 31.0559 22.4267 31.6826 23.04C32.3226 23.64 32.6426 24.4933 32.6426 25.6C32.6426 26.2933 32.5092 26.8733 32.2426 27.34C31.9759 27.7933 31.6159 28.1467 31.1626 28.4C31.7626 28.5867 32.2359 28.9 32.5826 29.34C32.9426 29.7667 33.1226 30.4 33.1226 31.24C33.1226 32.48 32.7692 33.42 32.0626 34.06C31.3692 34.6867 30.3626 35 29.0426 35H22.2826ZM24.9826 27.46H28.3026C28.9559 27.46 29.4226 27.32 29.7026 27.04C29.9826 26.7467 30.1226 26.34 30.1226 25.82C30.1226 25.2467 29.9759 24.82 29.6826 24.54C29.4026 24.26 28.8759 24.12 28.1026 24.12H24.9826V27.46ZM24.9826 33.02H28.4026C29.0826 33.02 29.5826 32.88 29.9026 32.6C30.2226 32.32 30.3826 31.8267 30.3826 31.12C30.3826 30.5467 30.2226 30.12 29.9026 29.84C29.5959 29.56 29.0359 29.42 28.2226 29.42H24.9826V33.02Z" fill="white"/>
</svg>
